<?xml version="1.0" encoding="UTF-8" standalone="no"?>
<!DOCTYPE svg PUBLIC "-//W3C//DTD SVG 1.1//EN" "http://www.w3.org/Graphics/SVG/1.1/DTD/svg11.dtd">

<!-- Created with Vectornator (http://vectornator.io/) -->
<svg height="100%" stroke-miterlimit="10" style="fill-rule:nonzero;clip-rule:evenodd;stroke-linecap:round;stroke-linejoin:round;" version="1.1" viewBox="0 0 512 512" width="100%" xml:space="preserve" xmlns="http://www.w3.org/2000/svg" xmlns:vectornator="http://vectornator.io" xmlns:xlink="http://www.w3.org/1999/xlink">
<metadata>
<vectornator:setting key="IsTimeLapseWatermarkDisabled" value="false"/>
<vectornator:setting key="UndoHistoryDisabled" value="true"/>
<vectornator:setting key="VNDimensionsVisible" value="true"/>
<vectornator:setting key="VNSnapToGuides" value="true"/>
<vectornator:setting key="WDCMYKEnabledKey" value="false"/>
<vectornator:setting key="WDDisplayWhiteBackground" value="false"/>
<vectornator:setting key="WDDynamicGuides" value="false"/>
<vectornator:setting key="WDGuidesVisible" value="true"/>
<vectornator:setting key="WDIsolateActiveLayer" value="false"/>
<vectornator:setting key="WDOutlineMode" value="false"/>
<vectornator:setting key="WDRulersVisible" value="true"/>
<vectornator:setting key="WDSnapToEdges" value="false"/>
<vectornator:setting key="WDSnapToGrid" value="false"/>
<vectornator:setting key="WDSnapToPoints" value="false"/>
<vectornator:setting key="WDUnits" value="Points"/>
</metadata>
<defs>
<path d="M0 0L512 0L512 512L0 512L0 0Z" fill-rule="evenodd" id="Fill"/>
</defs>
<g id="Untitled" vectornator:layerName="Untitled">
<g opacity="1" vectornator:mask="#Fill">
<clipPath id="ClipPath">
<use overflow="#visible" xlink:href="#Fill"/>
</clipPath>
<g clip-path="url(#ClipPath)">
<path d="M446.591 505.75L65.4083 505.75C32.4593 505.75 5.50031 478.791 5.50031 445.842L5.50031 66.158C5.50031 33.209 32.4593 6.25 65.4083 6.25L446.591 6.25C479.541 6.25 506.5 33.209 506.5 66.158L506.5 445.842C506.5 478.791 479.541 505.75 446.591 505.75" fill="#0f99db" fill-rule="evenodd" opacity="1" stroke="none"/>
<path d="M290.957 282.39C292.015 280.494 292.354 278.667 292.568 277.165C292.568 275.305 292.711 273.945 292.711 272.299L292.711 264.712C290.957 268.435 290.206 272.299 289.886 277.165L289.886 288.257C290.206 285.288 290.708 283.535 290.957 282.39M289.886 242.42C291.459 240.99 292.354 239.773 292.354 239.202C292.568 238.878 292.711 237.303 292.711 234.656C292.015 236.481 291.459 237.877 290.708 238.878C290.206 240.059 289.886 241.346 289.886 242.42M283.212 217.623C286.342 213.652 288.936 210.682 290.708 208.321C292.711 205.565 294.035 203.705 295.001 201.808C296.039 199.876 296.666 197.658 297.203 195.153C297.56 192.935 298.132 189.714 298.705 185.848L296.039 185.848L296.039 189.177L292.711 189.177C292.711 192.182 292.354 195.51 290.957 198.623C290.206 201.629 289.886 204.742 289.886 207.926L286.467 207.926L283.212 217.623ZM270.795 324.505C277.254 318.315 281.887 313.018 285.251 308.975C288.204 304.717 289.886 299.352 289.886 293.052C288.204 296.13 285.716 300.066 282.262 304.502C278.703 308.975 277.002 313.591 277.002 317.957L274.266 317.957L270.795 324.505ZM264.962 217.623L268.273 207.926L264.962 207.926L264.962 217.623ZM257.376 303.178C257.842 302.892 258.217 302.749 258.88 302.749L258.88 294.054L257.376 298.278C256.482 300.066 255.874 301.927 255.874 305.111C255.874 304.395 256.482 303.751 257.376 303.178M237.159 333.916C240.128 332.126 242.044 331.161 242.723 330.696C243.064 330.194 243.207 329.157 243.207 327.726L237.159 333.916ZM218.894 317.957C220.073 316.741 221.433 315.918 222.776 315.488C224.278 315.237 227.927 315.237 234.44 315.237L234.44 311.73L234.44 310.728L235.747 310.728L237.159 311.73L237.159 305.363L240.523 305.363C241.99 301.033 243.421 297.025 244.798 293.481C245.998 289.903 246.446 286.539 246.446 283.535C246.446 281.639 247.393 280.494 249.45 280.494C249.45 277.344 249.254 273.695 249.183 269.543C249.183 265.609 248.127 261.529 246.446 258.488C248.127 255.195 249.183 251.403 249.72 247.251C250.006 243.316 251.293 239.487 252.743 236.481C250.828 230.29 249.897 224.065 249.897 217.874C249.897 212.292 250.489 206.639 251.293 201.093C251.883 195.368 252.743 189.428 252.743 183.129C251.293 178.227 250.006 173.469 249.72 168.458C249.183 163.772 248.127 159.156 246.446 154.755C245.032 153.145 243.421 151.999 242.294 151.497C241.06 151.105 240.523 149.995 240.523 148.456L240.523 138.973C236.963 137.651 234.065 136.971 231.273 136.469C228.607 135.717 226.121 135.361 223.651 135.361C219.037 135.361 214.867 136.255 210.77 137.973C206.816 139.941 202.253 142.051 197.12 144.95C197.12 154.146 196.099 163.772 193.63 173.469C191.448 183.129 189.39 192.182 187.708 201.808C187.708 206.639 187.941 210.789 188.441 214.44C188.441 218.089 189.39 222.132 191.287 226.57C188.441 234.191 186.384 240.595 185.471 246.536C184.542 252.547 183.808 258.702 183.808 265.178C183.808 269.58 184.113 274.481 184.542 279.635C184.81 284.609 184.81 290.262 184.81 296.379L187.708 296.379C189.39 298.062 190.321 300.066 190.554 302.749C190.893 305.111 191.287 307.293 191.287 308.975L197.12 311.73L197.12 305.363L200.394 305.363L200.394 299.278L206.816 299.278C206.816 301.496 207.389 302.749 209.554 302.749L212.542 305.363L212.542 315.237C214.348 315.237 215.242 315.237 215.797 315.453C215.797 315.453 217.157 316.418 218.894 317.957M157.525 242.42C161.801 239.202 164.699 237.554 165.596 236.946C166.598 236.552 167.706 236.481 169.441 236.481L169.441 218.554C169.047 218.983 168.905 219.807 168.708 220.844C168.529 221.917 168.135 222.777 167.706 223.779C166.919 224.959 166.096 226.355 165.22 227.5C164.699 228.465 163.699 229.431 163.234 230.29L160.014 230.29L157.525 242.42ZM169.441 129.242L169.441 116.575C167.706 121.406 166.096 126.058 164.593 130.53C162.822 135.038 160.175 138.973 157.525 142.051L160.014 144.95C161.481 141.909 163.091 138.973 164.699 136.04C166.096 132.856 167.706 130.816 169.441 129.242M151.176 317.957C152.696 314.916 154.145 311.767 156.094 309.082C157.742 306.148 160.014 304.288 163.234 302.749L163.234 283.535L166.598 283.535L166.598 274.374L163.234 274.374C160.746 281.316 158.832 286.827 157.525 290.762C156.094 294.698 155.2 298.278 154.413 301.033C153.519 303.644 153.267 306.041 152.696 308.475C152.409 310.944 151.533 314.021 151.176 317.957M151.176 258.488L157.525 258.488L157.525 252.225C155.558 252.225 154.772 252.368 153.948 252.869C153.519 253.442 152.696 255.195 151.176 258.488M169.441 179.586L172.627 176.617C171.033 174.971 170.301 173.469 169.996 171.571C169.567 170.034 169.441 167.136 169.441 163.772C166.919 169.032 164.699 174.291 162.947 179.049C161.05 183.595 159.368 187.53 157.525 191.253C156.452 194.366 155.2 197.549 153.948 200.662C152.911 203.597 152.051 206.639 151.176 209.787C151.533 209.608 151.533 209.214 152.051 208.999C152.051 208.999 152.696 208.678 152.911 208.357C153.267 208.321 154.772 207.926 157.525 207.926C157.525 204.742 157.525 201.629 158.546 198.623C159.511 195.51 160.014 192.182 160.014 189.177L169.441 189.177L169.441 179.586ZM144.914 428.523C146.845 426.878 148.778 425.448 151.176 424.123C153.519 422.798 155.558 422.191 157.525 422.191L160.014 387.553C158.027 389.592 156.452 391.882 154.915 395.389L151.176 404.407C149.798 407.556 148.51 411.062 147.061 414.104C145.718 417.361 143.912 420.117 141.711 422.191C141.711 423.158 142.069 423.837 142.14 424.123C142.336 426.019 143.518 427.487 144.914 428.523M132.819 215.476C133.123 215.442 133.123 215.119 132.819 214.761L132.819 215.476ZM177.028 106.126C178.405 104.873 179.711 104.05 181.661 104.05C183.324 104.05 184.81 104.873 186.384 105.912C187.941 106.77 189.39 107.45 191.287 107.45C192.056 103.694 192.701 100.973 193.201 99.4346C193.63 97.8256 194.06 96.8946 195.007 96.3216C195.813 96.3216 196.851 96.1786 198.032 96.1786C199.051 96.1786 200.751 95.5356 203.363 94.4616L203.363 100.902L209.554 100.902C211.003 96.3216 212.095 93.6736 213.417 92.4566C214.581 91.2416 217.157 89.9526 221.541 88.3426L221.541 97.8256L225.048 97.8256C227.927 96.3216 229.77 95.1416 230.236 94.2106C231.059 93.6736 231.13 91.6346 231.13 88.3426L237.159 88.3426C238.823 91.6346 239.79 93.4596 240.128 93.9246C240.684 94.2106 241.721 94.4616 243.207 94.4616C245.069 92.7076 247.303 91.6346 249.897 91.6346C252.743 91.6346 255.461 92.9936 258.449 95.1416C261.671 97.2516 264.389 100.079 266.912 102.869C269.738 106.055 271.869 109.131 273.676 112.281C275.125 115.501 276.484 118.077 277.002 120.19C283.462 123.195 287.667 126.058 290.206 128.668C292.748 131.352 295.735 135.717 298.705 142.051C302.391 142.051 303.875 145.88 303.875 153.645C303.875 155.614 303.875 157.724 303.769 160.049C303.518 162.733 303.518 164.88 303.518 167.136C303.518 171.571 303.875 175.543 304.967 179.049C305.736 182.485 308.098 184.703 310.872 185.848C310.872 190.645 311.086 194.794 311.48 198.159C311.748 201.307 312.57 204.742 314.27 207.926L314.27 242.42C314.27 244.282 313.643 245.104 312.337 245.535C311.98 245.641 311.748 245.821 310.872 245.821C310.066 256.625 309.1 263.495 309.1 267.29C308.456 271.082 308.222 273.695 308.222 275.305L308.222 277.165L310.872 280.494L308.222 305.363L304.967 305.363C303.214 309.333 302.159 312.589 301.013 314.916C300.207 317.098 299.366 319.459 298.132 321.178C297.47 323.289 296.307 325.005 295.001 326.939C293.641 328.728 292.015 331.053 289.886 333.916C285.251 336.35 279.115 339.391 271.869 342.288C264.73 345.367 257.842 346.761 251.489 346.761C246.446 346.761 242.921 345.795 240.523 343.505C238.931 346.546 237.445 349.159 236.212 350.841C234.924 352.523 234.44 354.313 234.44 355.994C231.273 355.994 228.663 355.385 226.98 354.133C225.048 352.523 223.151 351.306 221.541 349.804C221.541 351.306 220.415 352.523 218.302 354.133C215.834 355.385 214.348 355.994 212.542 355.994C208.052 351.163 203.882 348.443 200.018 347.98C196.297 347.514 192.736 347.192 189.39 347.083C186.582 346.941 183.808 345.795 181.5 344.328C179.049 342.575 177.028 337.923 175.632 331.053L172.627 331.053L172.627 333.916C172.627 353.094 173.181 371.917 174.433 390.416C175.221 408.844 175.632 426.412 175.632 443.802C169.335 445.556 163.091 446.987 157.525 448.454C151.176 449.707 145.075 450.567 138.829 450.567C135.878 446.987 133.123 443.802 131.19 440.761C129.061 437.755 126.432 434.536 123.246 431.35C123.246 424.911 123.426 419.435 123.426 414.783C123.748 410.168 124.66 406.16 125.985 402.976C121.958 397.501 118.882 389.592 117.235 379.467C115.643 369.304 114.821 358.391 114.821 346.761C114.821 332.701 115.643 318.744 117.11 304.502C118.345 290.262 119.419 279.277 120.115 271.011C118.345 266.395 117.486 261.529 117.486 256.84C117.307 251.831 117.235 245.821 117.235 239.773C117.486 235.085 117.718 230.827 117.718 226.57L117.718 213.652L117.718 202.202L116.806 162.805L116.806 151.785C116.806 140.478 117.235 129.527 118.202 118.973C119.239 108.452 121.154 98.2176 123.246 88.3426C128.31 88.3426 131.62 90.3816 133.784 94.2106C136.002 98.2176 138.419 102.692 141.711 107.45L141.711 100.902C143.912 100.902 145.879 100.687 147.722 100.187C149.798 99.5416 151.533 99.4346 153.805 99.4346C156.094 99.4346 158.027 99.9356 160.014 100.902C160.014 97.6096 160.603 95.1416 161.481 93.4596C162.822 91.6346 163.234 89.9526 163.234 88.3426L172.627 88.3426L172.627 92.7076C172.627 95.2126 172.947 97.6096 173.056 99.9356C173.056 102.19 174.021 104.622 175.632 107.45L177.028 106.126Z" fill="#0d62a9" fill-rule="evenodd" opacity="1" stroke="none"/>
<path d="M304.569 305.077C305.627 303.181 305.966 301.353 306.18 299.851C306.18 297.992 306.323 296.632 306.323 294.986L306.323 287.399C304.569 291.122 303.818 294.986 303.498 299.851L303.498 310.944C303.818 307.975 304.32 306.222 304.569 305.077M303.498 265.106C305.071 263.676 305.966 262.46 305.966 261.888C306.18 261.565 306.323 259.99 306.323 257.343C305.627 259.167 305.071 260.563 304.32 261.565C303.818 262.746 303.498 264.033 303.498 265.106M296.824 240.31C299.954 236.339 302.548 233.369 304.32 231.007C306.323 228.251 307.647 226.392 308.613 224.494C309.652 222.562 310.278 220.344 310.815 217.84C311.172 215.621 311.744 212.4 312.317 208.535L309.652 208.535L309.652 211.864L306.323 211.864C306.323 214.869 305.966 218.197 304.569 221.31C303.818 224.316 303.498 227.429 303.498 230.613L300.079 230.613L296.824 240.31ZM284.407 347.192C290.866 341.001 295.499 335.705 298.863 331.661C301.816 327.404 303.498 322.038 303.498 315.739C301.816 318.817 299.328 322.752 295.874 327.189C292.315 331.661 290.615 336.278 290.615 340.644L287.878 340.644L284.407 347.192ZM278.574 240.31L281.885 230.613L278.574 230.613L278.574 240.31ZM270.988 325.865C271.453 325.579 271.829 325.436 272.492 325.436L272.492 316.741L270.988 320.965C270.094 322.752 269.486 324.614 269.486 327.798C269.486 327.082 270.094 326.438 270.988 325.865M250.771 356.603C253.74 354.813 255.656 353.848 256.335 353.382C256.676 352.881 256.819 351.844 256.819 350.413L250.771 356.603ZM232.506 340.644C233.685 339.428 235.045 338.604 236.388 338.175C237.89 337.924 241.539 337.924 248.052 337.924L248.052 334.417L248.052 333.415L249.359 333.415L250.771 334.417L250.771 328.049L254.135 328.049C255.602 323.72 257.034 319.711 258.41 316.168C259.609 312.59 260.058 309.226 260.058 306.222C260.058 304.326 261.005 303.181 263.062 303.181C263.062 300.031 262.866 296.382 262.795 292.23C262.795 288.295 261.74 284.216 260.058 281.175C261.74 277.882 262.795 274.09 263.332 269.938C263.618 266.003 264.905 262.174 266.355 259.167C264.44 252.976 263.509 246.752 263.509 240.561C263.509 234.979 264.101 229.325 264.905 223.779C265.495 218.055 266.355 212.115 266.355 205.816C264.905 200.913 263.618 196.156 263.332 191.145C262.795 186.459 261.74 181.843 260.058 177.441C258.644 175.832 257.034 174.686 255.906 174.183C254.672 173.792 254.135 172.681 254.135 171.142L254.135 161.66C250.575 160.338 247.677 159.658 244.885 159.156C242.219 158.404 239.733 158.048 237.263 158.048C232.649 158.048 228.479 158.941 224.382 160.66C220.429 162.627 215.865 164.738 210.732 167.637C210.732 176.833 209.711 186.459 207.242 196.156C205.06 205.816 203.002 214.869 201.32 224.494C201.32 229.325 201.553 233.476 202.053 237.126C202.053 240.775 203.002 244.819 204.899 249.256C202.053 256.878 199.996 263.282 199.084 269.222C198.154 275.234 197.42 281.389 197.42 287.865C197.42 292.266 197.725 297.168 198.154 302.321C198.422 307.296 198.422 312.949 198.422 319.066L201.32 319.066C203.002 320.748 203.933 322.752 204.166 325.436C204.505 327.798 204.899 329.98 204.899 331.661L210.732 334.417L210.732 328.049L214.006 328.049L214.006 321.965L220.429 321.965C220.429 324.183 221.001 325.436 223.166 325.436L226.154 328.049L226.154 337.924C227.96 337.924 228.854 337.924 229.409 338.14C229.409 338.14 230.769 339.105 232.506 340.644M171.137 265.106C175.413 261.888 178.311 260.241 179.208 259.633C180.21 259.238 181.319 259.167 183.053 259.167L183.053 241.241C182.659 241.67 182.517 242.494 182.32 243.531C182.141 244.604 181.747 245.463 181.319 246.466C180.531 247.645 179.708 249.042 178.832 250.186C178.311 251.151 177.311 252.118 176.846 252.976L173.626 252.976L171.137 265.106ZM183.053 151.929L183.053 139.262C181.319 144.093 179.708 148.744 178.205 153.216C176.434 157.725 173.787 161.66 171.137 164.738L173.626 167.637C175.093 164.596 176.703 161.66 178.311 158.726C179.708 155.543 181.319 153.502 183.053 151.929M164.788 340.644C166.308 337.603 167.757 334.453 169.706 331.769C171.354 328.835 173.626 326.975 176.846 325.436L176.846 306.222L180.21 306.222L180.21 297.061L176.846 297.061C174.358 304.003 172.444 309.514 171.137 313.449C169.706 317.385 168.813 320.965 168.025 323.72C167.131 326.331 166.879 328.728 166.308 331.161C166.021 333.631 165.145 336.707 164.788 340.644M164.788 281.175L171.137 281.175L171.137 274.912C169.17 274.912 168.384 275.055 167.56 275.556C167.131 276.129 166.308 277.882 164.788 281.175M183.053 202.273L186.239 199.304C184.645 197.658 183.913 196.156 183.608 194.258C183.179 192.721 183.053 189.822 183.053 186.459C180.531 191.719 178.311 196.978 176.559 201.736C174.662 206.281 172.98 210.217 171.137 213.94C170.064 217.053 168.813 220.236 167.56 223.349C166.523 226.284 165.663 229.325 164.788 232.474C165.145 232.295 165.145 231.901 165.663 231.686C165.663 231.686 166.308 231.364 166.523 231.044C166.879 231.007 168.384 230.613 171.137 230.613C171.137 227.429 171.137 224.316 172.158 221.31C173.123 218.197 173.626 214.869 173.626 211.864L183.053 211.864L183.053 202.273ZM158.526 451.21C160.457 449.564 162.39 448.135 164.788 446.809C167.131 445.485 169.17 444.877 171.137 444.877L173.626 410.24C171.639 412.279 170.064 414.569 168.527 418.076L164.788 427.093C163.41 430.242 162.122 433.749 160.673 436.791C159.33 440.048 157.524 442.803 155.323 444.877C155.323 445.844 155.681 446.523 155.752 446.809C155.948 448.706 157.13 450.173 158.526 451.21M146.431 238.163C146.735 238.128 146.735 237.806 146.431 237.448L146.431 238.163ZM190.64 128.812C192.017 127.56 193.323 126.737 195.273 126.737C196.936 126.737 198.422 127.56 199.996 128.599C201.553 129.456 203.002 130.136 204.899 130.136C205.668 126.381 206.313 123.66 206.813 122.121C207.242 120.513 207.672 119.582 208.619 119.008C209.426 119.008 210.463 118.865 211.644 118.865C212.663 118.865 214.363 118.223 216.975 117.149L216.975 123.588L223.166 123.588C224.615 119.008 225.707 116.361 227.03 115.144C228.193 113.928 230.769 112.64 235.153 111.029L235.153 120.513L238.66 120.513C241.539 119.008 243.382 117.828 243.848 116.897C244.671 116.361 244.742 114.322 244.742 111.029L250.771 111.029C252.435 114.322 253.402 116.146 253.74 116.612C254.296 116.897 255.333 117.149 256.819 117.149C258.681 115.395 260.916 114.322 263.509 114.322C266.355 114.322 269.073 115.681 272.061 117.828C275.283 119.939 278.001 122.766 280.524 125.556C283.35 128.742 285.481 131.818 287.288 134.968C288.737 138.188 290.096 140.764 290.615 142.876C297.074 145.881 301.279 148.744 303.818 151.355C306.36 154.039 309.347 158.404 312.317 164.738C316.003 164.738 317.487 168.567 317.487 176.331C317.487 178.301 317.487 180.411 317.381 182.736C317.13 185.42 317.13 187.566 317.13 189.822C317.13 194.258 317.487 198.23 318.579 201.736C319.348 205.171 321.71 207.39 324.484 208.535C324.484 213.331 324.698 217.48 325.092 220.845C325.36 223.994 326.182 227.429 327.882 230.613L327.882 265.106C327.882 266.969 327.255 267.791 325.949 268.222C325.592 268.328 325.36 268.507 324.484 268.507C323.678 279.312 322.712 286.182 322.712 289.977C322.068 293.769 321.834 296.382 321.834 297.992L321.834 299.851L324.484 303.181L321.834 328.049L318.579 328.049C316.826 332.02 315.771 335.276 314.625 337.603C313.819 339.785 312.978 342.146 311.744 343.864C311.082 345.975 309.919 347.692 308.613 349.625C307.253 351.415 305.627 353.74 303.498 356.603C298.863 359.036 292.727 362.078 285.481 364.975C278.342 368.054 271.453 369.447 265.101 369.447C260.058 369.447 256.533 368.482 254.135 366.192C252.543 369.233 251.057 371.846 249.824 373.528C248.536 375.21 248.052 376.999 248.052 378.681C244.885 378.681 242.275 378.071 240.592 376.82C238.66 375.21 236.763 373.993 235.153 372.491C235.153 373.993 234.027 375.21 231.914 376.82C229.446 378.071 227.96 378.681 226.154 378.681C221.664 373.849 217.494 371.13 213.63 370.666C209.909 370.2 206.348 369.878 203.002 369.77C200.194 369.627 197.42 368.482 195.112 367.015C192.661 365.262 190.64 360.61 189.244 353.74L186.239 353.74L186.239 356.603C186.239 375.781 186.793 394.603 188.045 413.103C188.833 431.53 189.244 449.099 189.244 466.489C182.947 468.242 176.703 469.674 171.137 471.14C164.788 472.394 158.687 473.254 152.441 473.254C149.49 469.674 146.735 466.489 144.802 463.448C142.673 460.442 140.043 457.223 136.858 454.037C136.858 447.598 137.038 442.122 137.038 437.47C137.36 432.855 138.272 428.847 139.597 425.663C135.57 420.188 132.494 412.279 130.847 402.153C129.255 391.991 128.433 381.077 128.433 369.447C128.433 355.387 129.255 341.431 130.722 327.189C131.957 312.949 133.031 301.964 133.727 293.698C131.957 289.081 131.098 284.216 131.098 279.526C130.919 274.517 130.847 268.507 130.847 262.46C131.098 257.771 131.33 253.514 131.33 249.256L131.33 236.339L131.33 224.889L130.418 185.491L130.418 174.472C130.418 163.164 130.847 152.214 131.814 141.66C132.851 131.139 134.766 120.905 136.858 111.029C141.922 111.029 145.232 113.069 147.396 116.897C149.614 120.905 152.031 125.378 155.323 130.136L155.323 123.588C157.524 123.588 159.491 123.374 161.334 122.874C163.41 122.229 165.145 122.121 167.417 122.121C169.706 122.121 171.639 122.623 173.626 123.588C173.626 120.296 174.215 117.828 175.093 116.146C176.434 114.322 176.846 112.64 176.846 111.029L186.239 111.029L186.239 115.395C186.239 117.9 186.56 120.296 186.668 122.623C186.668 124.876 187.633 127.309 189.244 130.136L190.64 128.812Z" fill="#0f99db" fill-rule="evenodd" opacity="1" stroke="none"/>
<path d="M393.937 166.884C393.937 159.155 391.401 151.84 386.976 145.905C386.984 145.784 386.993 145.662 387.005 145.541C387.057 144.984 387.096 144.423 387.123 143.865C387.25 141.062 387.259 138.526 387.259 136.155C387.259 119.08 381.535 107.884 374.022 100.8C371.11 95.9518 367.959 91.7348 364.604 88.1888C364.496 88.0768 364.389 87.9678 364.281 87.8558C361.315 84.8058 357.856 81.9738 353.842 79.3168C353.826 79.2888 353.811 79.2608 353.795 79.2358C350.727 73.8808 347.242 69.0298 342.932 64.1768C339.3 60.1548 334.795 55.5288 328.789 51.4658C325.153 48.8738 315.993 42.6998 303.178 41.9618C298.655 39.8808 293.664 38.7458 288.502 38.7458L282.748 38.7458C281.192 38.7458 279.659 38.8498 278.158 39.0428C272.619 38.3228 266.902 38.9118 261.507 40.8968C258.594 41.9648 255.498 43.2078 252.41 44.7998C250.86 44.9678 249.315 45.2448 247.787 45.6218C241.955 41.3008 234.736 38.7458 226.919 38.7458L217.957 38.7458C211.633 38.7458 205.698 40.4188 200.574 43.3478C194.335 40.3378 187.307 38.7458 179.797 38.7458C163.22 38.7458 148.904 50.3478 145.468 66.5628C143.599 75.3888 141.295 87.1198 140.04 99.8628C139.045 110.709 138.561 122.002 138.561 134.379L138.561 144.897C138.561 145.167 138.564 145.439 138.571 145.706L139.43 182.893L139.43 205.747C139.43 208.81 139.245 212.264 139.019 216.467C138.987 217.093 138.969 217.719 138.969 218.345C138.969 224.875 139.052 230.588 139.212 235.339C139.267 240.915 139.952 246.426 141.262 251.806C141.083 253.784 140.89 255.891 140.684 258.127C140.184 263.572 139.616 269.779 139.005 276.813C137.43 292.18 136.666 306.454 136.666 320.442C136.666 333.202 137.583 345.532 139.424 357.286C140.706 365.164 142.683 372.399 145.337 378.938C145.181 380.245 145.056 381.572 144.963 382.915C144.906 383.726 144.877 384.542 144.877 385.355C144.877 387.218 144.843 389.234 144.807 391.411C144.758 394.393 144.706 397.635 144.706 401.164C144.706 410.47 148.402 419.395 154.983 425.978C156.226 427.221 157.376 428.561 158.41 429.969C160.987 433.865 163.812 437.271 166.331 440.302L167.588 441.819C174.253 449.909 184.186 454.595 194.667 454.595C204.583 454.595 213.477 453.065 219.304 451.915C220.03 451.773 220.75 451.608 221.463 451.417C223.443 450.894 225.519 450.38 227.656 449.847C231.392 448.918 235.284 447.944 239.198 446.854C254.376 442.629 264.878 428.807 264.878 413.05C264.878 397.38 264.543 381.405 263.857 364.326C267.85 364.442 271.574 363.978 274.833 363.198C278.365 363.959 282.074 364.345 285.909 364.345C294.675 364.345 303.105 361.065 309.554 355.183C318.094 354.376 326.643 352.171 335.055 348.598C341.619 345.956 348.189 342.897 355.125 339.258C359.783 336.813 363.831 333.352 366.971 329.133C368.062 327.666 369.027 326.336 369.895 325.14C370.552 324.234 371.128 323.429 371.656 322.735C372.04 322.231 372.412 321.71 372.767 321.187C374.203 319.062 376.353 315.884 378.252 311.611C379.343 309.604 380.208 307.688 380.914 305.965C386.534 300.446 390.32 293.025 391.211 284.654L393.739 260.921C394.269 255.959 393.728 250.99 392.211 246.333C392.231 245.863 392.242 245.383 392.242 244.884C392.272 244.03 392.533 241.342 392.742 239.184C392.745 239.164 392.747 239.146 392.748 239.127C395.61 233.703 397.18 227.488 397.18 220.871L397.18 187.956C397.18 183.074 396.161 178.255 394.2 173.806C394.079 172.498 393.937 170.252 393.937 166.884" fill="#ffffff" fill-rule="evenodd" opacity="1" stroke="none"/>
<path d="M339.842 248.305C340.851 246.495 341.175 244.752 341.379 243.319C341.379 241.544 341.516 240.245 341.516 238.675L341.516 231.435C339.842 234.988 339.125 238.675 338.82 243.319L338.82 253.905C339.125 251.071 339.605 249.398 339.842 248.305M338.82 210.161C340.321 208.796 341.175 207.636 341.175 207.09C341.379 206.783 341.516 205.279 341.516 202.752C340.851 204.493 340.321 205.826 339.605 206.783C339.125 207.909 338.82 209.137 338.82 210.161M332.451 186.498C335.438 182.708 337.914 179.874 339.605 177.62C341.516 174.991 342.78 173.216 343.701 171.406C344.692 169.563 345.29 167.445 345.802 165.055C346.143 162.939 346.689 159.865 347.236 156.175L344.692 156.175L344.692 159.353L341.516 159.353C341.516 162.22 341.175 165.397 339.842 168.367C339.125 171.236 338.82 174.206 338.82 177.244L335.557 177.244L332.451 186.498ZM320.602 288.495C326.765 282.587 331.186 277.533 334.396 273.674C337.215 269.612 338.82 264.491 338.82 258.48C337.215 261.417 334.84 265.172 331.545 269.407C328.148 273.674 326.525 278.08 326.525 282.246L323.914 282.246L320.602 288.495ZM315.036 186.498L318.195 177.244L315.036 177.244L315.036 186.498ZM307.796 268.143C308.24 267.869 308.598 267.734 309.231 267.734L309.231 259.436L307.796 263.466C306.943 265.172 306.362 266.949 306.362 269.988C306.362 269.304 306.943 268.69 307.796 268.143M288.503 297.476C291.337 295.768 293.165 294.847 293.813 294.403C294.138 293.923 294.274 292.934 294.274 291.569L288.503 297.476ZM271.073 282.246C272.198 281.085 273.496 280.3 274.778 279.89C276.211 279.651 279.693 279.651 285.908 279.651L285.908 276.304L285.908 275.348L287.155 275.348L288.503 276.304L288.503 270.227L291.713 270.227C293.113 266.096 294.479 262.271 295.793 258.889C296.937 255.474 297.365 252.265 297.365 249.398C297.365 247.588 298.269 246.495 300.232 246.495C300.232 243.49 300.045 240.007 299.977 236.045C299.977 232.29 298.97 228.397 297.365 225.495C298.97 222.353 299.977 218.734 300.489 214.773C300.763 211.016 301.991 207.363 303.374 204.493C301.547 198.586 300.659 192.646 300.659 186.738C300.659 181.411 301.224 176.016 301.991 170.723C302.554 165.26 303.374 159.592 303.374 153.581C301.991 148.903 300.763 144.363 300.489 139.58C299.977 135.109 298.97 130.702 297.365 126.504C296.016 124.967 294.479 123.874 293.404 123.395C292.225 123.021 291.713 121.961 291.713 120.492L291.713 111.444C288.316 110.181 285.55 109.533 282.886 109.054C280.342 108.336 277.969 107.996 275.613 107.996C271.209 107.996 267.229 108.849 263.32 110.489C259.547 112.367 255.193 114.38 250.294 117.147C250.294 125.923 249.32 135.109 246.963 144.363C244.881 153.581 242.918 162.22 241.313 171.406C241.313 176.016 241.535 179.977 242.012 183.46C242.012 186.943 242.918 190.801 244.727 195.035C242.012 202.309 240.049 208.42 239.178 214.089C238.291 219.826 237.591 225.7 237.591 231.879C237.591 236.08 237.881 240.757 238.291 245.675C238.547 250.422 238.547 255.818 238.547 261.655L241.313 261.655C242.918 263.26 243.806 265.172 244.028 267.734C244.352 269.988 244.727 272.07 244.727 273.674L250.294 276.304L250.294 270.227L253.418 270.227L253.418 264.421L259.547 264.421C259.547 266.538 260.093 267.734 262.159 267.734L265.011 270.227L265.011 279.651C266.735 279.651 267.588 279.651 268.118 279.857C268.118 279.857 269.415 280.778 271.073 282.246M212.509 210.161C216.59 207.09 219.355 205.519 220.211 204.938C221.167 204.562 222.225 204.493 223.88 204.493L223.88 187.386C223.504 187.796 223.368 188.582 223.181 189.572C223.01 190.596 222.634 191.416 222.225 192.372C221.473 193.499 220.688 194.83 219.852 195.924C219.355 196.845 218.401 197.767 217.957 198.586L214.884 198.586L212.509 210.161ZM223.88 102.157L223.88 90.0687C222.225 94.6787 220.688 99.1177 219.254 103.385C217.564 107.688 215.037 111.444 212.509 114.38L214.884 117.147C216.284 114.244 217.82 111.444 219.355 108.644C220.688 105.606 222.225 103.659 223.88 102.157M206.45 282.246C207.901 279.344 209.284 276.339 211.144 273.778C212.716 270.977 214.884 269.202 217.957 267.734L217.957 249.398L221.167 249.398L221.167 240.656L217.957 240.656C215.582 247.28 213.756 252.539 212.509 256.294C211.144 260.05 210.291 263.466 209.539 266.096C208.686 268.587 208.446 270.875 207.901 273.198C207.626 275.554 206.79 278.49 206.45 282.246M206.45 225.495L212.509 225.495L212.509 219.519C210.632 219.519 209.881 219.655 209.095 220.132C208.686 220.679 207.901 222.353 206.45 225.495M223.88 150.201L226.921 147.366C225.4 145.796 224.7 144.363 224.41 142.551C224.001 141.084 223.88 138.319 223.88 135.109C221.473 140.128 219.355 145.148 217.683 149.688C215.873 154.026 214.268 157.781 212.509 161.333C211.485 164.303 210.291 167.342 209.095 170.313C208.105 173.114 207.285 176.016 206.45 179.021C206.79 178.849 206.79 178.474 207.285 178.269C207.285 178.269 207.901 177.962 208.105 177.656C208.446 177.62 209.881 177.244 212.509 177.244C212.509 174.206 212.509 171.236 213.483 168.367C214.404 165.397 214.884 162.22 214.884 159.353L223.88 159.353L223.88 150.201ZM200.474 387.758C202.317 386.189 204.161 384.824 206.45 383.559C208.686 382.295 210.632 381.715 212.509 381.715L214.884 348.661C212.988 350.608 211.485 352.792 210.018 356.139L206.45 364.743C205.134 367.749 203.906 371.096 202.523 373.998C201.241 377.106 199.518 379.736 197.417 381.715C197.417 382.638 197.759 383.286 197.827 383.559C198.014 385.368 199.142 386.769 200.474 387.758M188.932 184.45C189.222 184.416 189.222 184.109 188.932 183.768L188.932 184.45ZM231.12 80.0977C232.435 78.9017 233.681 78.1167 235.542 78.1167C237.129 78.1167 238.547 78.9017 240.049 79.8937C241.535 80.7117 242.918 81.3607 244.727 81.3607C245.461 77.7767 246.077 75.1797 246.554 73.7117C246.963 72.1757 247.374 71.2877 248.278 70.7407C249.047 70.7407 250.037 70.6047 251.164 70.6047C252.136 70.6047 253.759 69.9907 256.252 68.9667L256.252 75.1117L262.159 75.1117C263.542 70.7407 264.584 68.2147 265.847 67.0537C266.957 65.8927 269.415 64.6637 273.599 63.1267L273.599 72.1757L276.945 72.1757C279.693 70.7407 281.452 69.6157 281.896 68.7267C282.681 68.2147 282.749 66.2687 282.749 63.1267L288.503 63.1267C290.091 66.2687 291.014 68.0097 291.337 68.4537C291.867 68.7267 292.857 68.9667 294.274 68.9667C296.051 67.2927 298.184 66.2687 300.659 66.2687C303.374 66.2687 305.969 67.5657 308.82 69.6157C311.894 71.6287 314.488 74.3257 316.896 76.9897C319.593 80.0297 321.627 82.9647 323.351 85.9707C324.734 89.0437 326.03 91.5017 326.525 93.5177C332.69 96.3857 336.702 99.1177 339.125 101.61C341.55 104.17 344.402 108.336 347.236 114.38C350.753 114.38 352.17 118.034 352.17 125.444C352.17 127.324 352.17 129.337 352.068 131.556C351.828 134.117 351.828 136.166 351.828 138.319C351.828 142.551 352.17 146.342 353.212 149.688C353.946 152.966 356.2 155.083 358.846 156.175C358.846 160.753 359.051 164.713 359.427 167.923C359.682 170.927 360.467 174.206 362.089 177.244L362.089 210.161C362.089 211.939 361.491 212.723 360.245 213.134C359.904 213.236 359.682 213.407 358.846 213.407C358.078 223.718 357.156 230.275 357.156 233.896C356.541 237.514 356.318 240.007 356.318 241.544L356.318 243.319L358.846 246.495L356.318 270.227L353.212 270.227C351.538 274.017 350.531 277.123 349.439 279.344C348.67 281.426 347.867 283.68 346.689 285.32C346.057 287.334 344.947 288.973 343.701 290.817C342.404 292.525 340.851 294.743 338.82 297.476C334.396 299.798 328.541 302.7 321.627 305.466C314.813 308.403 308.24 309.734 302.178 309.734C297.365 309.734 294.002 308.812 291.713 306.626C290.194 309.529 288.776 312.022 287.599 313.626C286.37 315.232 285.908 316.94 285.908 318.545C282.886 318.545 280.395 317.963 278.79 316.769C276.945 315.232 275.135 314.072 273.599 312.638C273.599 314.072 272.524 315.232 270.508 316.769C268.153 317.963 266.735 318.545 265.011 318.545C260.726 313.934 256.747 311.338 253.06 310.897C249.509 310.451 246.11 310.144 242.918 310.041C240.238 309.905 237.591 308.812 235.388 307.411C233.049 305.739 231.12 301.3 229.788 294.743L226.921 294.743L226.921 297.476C226.921 315.778 227.449 333.74 228.644 351.394C229.396 368.979 229.788 385.744 229.788 402.339C223.779 404.013 217.82 405.378 212.509 406.779C206.45 407.975 200.628 408.794 194.668 408.794C191.852 405.378 189.222 402.339 187.377 399.438C185.345 396.569 182.837 393.496 179.796 390.456C179.796 384.311 179.968 379.085 179.968 374.647C180.276 370.243 181.146 366.417 182.411 363.378C178.568 358.155 175.633 350.608 174.06 340.945C172.541 331.246 171.756 320.831 171.756 309.734C171.756 296.316 172.541 282.996 173.941 269.407C175.12 255.818 176.144 245.334 176.809 237.447C175.12 233.04 174.3 228.397 174.3 223.922C174.129 219.143 174.06 213.407 174.06 207.636C174.3 203.161 174.522 199.098 174.522 195.035L174.522 182.708L174.522 171.782L173.652 134.186L173.652 123.669C173.652 112.879 174.06 102.429 174.984 92.3577C175.973 82.3167 177.8 72.5507 179.796 63.1267C184.629 63.1267 187.788 65.0737 189.853 68.7267C191.97 72.5507 194.276 76.8197 197.417 81.3607L197.417 75.1117C199.518 75.1117 201.395 74.9077 203.154 74.4297C205.134 73.8147 206.79 73.7117 208.958 73.7117C211.144 73.7117 212.988 74.1907 214.884 75.1117C214.884 71.9697 215.447 69.6157 216.284 68.0097C217.564 66.2687 217.957 64.6637 217.957 63.1267L226.921 63.1267L226.921 67.2927C226.921 69.6837 227.227 71.9697 227.33 74.1907C227.33 76.3407 228.251 78.6617 229.788 81.3607L231.12 80.0977Z" fill="#0d62a9" fill-rule="evenodd" opacity="1" stroke="none"/>
<path d="M352.832 269.954C353.842 268.145 354.165 266.401 354.369 264.969C354.369 263.193 354.506 261.895 354.506 260.325L354.506 253.085C352.832 256.638 352.115 260.325 351.81 264.969L351.81 275.555C352.115 272.721 352.595 271.047 352.832 269.954M351.81 231.811C353.311 230.446 354.165 229.285 354.165 228.74C354.369 228.432 354.506 226.929 354.506 224.402C353.842 226.143 353.311 227.475 352.595 228.432C352.115 229.558 351.81 230.787 351.81 231.811M345.441 208.148C348.428 204.358 350.904 201.524 352.595 199.27C354.506 196.641 355.77 194.866 356.691 193.056C357.682 191.212 358.28 189.095 358.792 186.705C359.133 184.588 359.679 181.515 360.226 177.826L357.682 177.826L357.682 181.003L354.506 181.003C354.506 183.87 354.165 187.047 352.832 190.016C352.115 192.886 351.81 195.855 351.81 198.894L348.548 198.894L345.441 208.148ZM333.592 310.145C339.755 304.237 344.176 299.183 347.387 295.324C350.205 291.262 351.81 286.141 351.81 280.13C350.205 283.067 347.831 286.822 344.535 291.057C341.138 295.324 339.515 299.73 339.515 303.896L336.904 303.896L333.592 310.145ZM328.026 208.148L331.185 198.894L328.026 198.894L328.026 208.148ZM320.786 289.793C321.23 289.519 321.588 289.384 322.221 289.384L322.221 281.086L320.786 285.116C319.933 286.822 319.352 288.599 319.352 291.638C319.352 290.953 319.933 290.34 320.786 289.793M301.493 319.126C304.327 317.418 306.155 316.496 306.803 316.052C307.128 315.573 307.265 314.584 307.265 313.219L301.493 319.126ZM284.063 303.896C285.188 302.735 286.486 301.95 287.768 301.54C289.201 301.3 292.684 301.3 298.899 301.3L298.899 297.954L298.899 296.997L300.145 296.997L301.493 297.954L301.493 291.877L304.703 291.877C306.104 287.745 307.469 283.92 308.783 280.539C309.927 277.124 310.356 273.915 310.356 271.047C310.356 269.238 311.259 268.145 313.223 268.145C313.223 265.14 313.036 261.657 312.967 257.695C312.967 253.939 311.96 250.047 310.356 247.144C311.96 244.003 312.967 240.384 313.48 236.422C313.753 232.667 314.981 229.013 316.364 226.143C314.538 220.236 313.649 214.296 313.649 208.388C313.649 203.061 314.214 197.666 314.981 192.373C315.544 186.91 316.364 181.242 316.364 175.231C314.981 170.553 313.753 166.013 313.48 161.23C312.967 156.759 311.96 152.352 310.356 148.153C309.006 146.617 307.469 145.524 306.394 145.045C305.216 144.671 304.703 143.611 304.703 142.142L304.703 133.093C301.306 131.831 298.54 131.183 295.876 130.703C293.332 129.986 290.96 129.645 288.603 129.645C284.199 129.645 280.22 130.499 276.31 132.139C272.538 134.017 268.183 136.031 263.284 138.796C263.284 147.573 262.31 156.759 259.953 166.013C257.871 175.231 255.908 183.87 254.303 193.056C254.303 197.666 254.525 201.628 255.002 205.11C255.002 208.593 255.908 212.451 257.717 216.685C255.002 223.959 253.039 230.07 252.168 235.738C251.282 241.476 250.581 247.35 250.581 253.529C250.581 257.73 250.871 262.407 251.282 267.325C251.537 272.072 251.537 277.468 251.537 283.305L254.303 283.305C255.908 284.91 256.796 286.822 257.018 289.384C257.342 291.638 257.717 293.72 257.717 295.324L263.284 297.954L263.284 291.877L266.408 291.877L266.408 286.07L272.538 286.07C272.538 288.188 273.084 289.384 275.149 289.384L278.001 291.877L278.001 301.3C279.725 301.3 280.578 301.3 281.108 301.506C281.108 301.506 282.405 302.428 284.063 303.896M225.499 231.811C229.58 228.74 232.346 227.168 233.201 226.588C234.157 226.212 235.215 226.143 236.87 226.143L236.87 209.037C236.495 209.445 236.358 210.232 236.171 211.222C236 212.246 235.624 213.066 235.215 214.022C234.463 215.148 233.678 216.48 232.842 217.573C232.346 218.494 231.391 219.416 230.947 220.236L227.874 220.236L225.499 231.811ZM236.87 123.807L236.87 111.719C235.215 116.329 233.678 120.768 232.244 125.035C230.554 129.338 228.028 133.093 225.499 136.031L227.874 138.796C229.274 135.894 230.811 133.093 232.346 130.294C233.678 127.256 235.215 125.308 236.87 123.807M219.44 303.896C220.891 300.994 222.274 297.988 224.134 295.428C225.706 292.627 227.874 290.852 230.947 289.384L230.947 271.047L234.157 271.047L234.157 262.306L230.947 262.306C228.573 268.931 226.746 274.189 225.499 277.944C224.134 281.7 223.281 285.116 222.529 287.745C221.676 290.237 221.436 292.525 220.891 294.847C220.616 297.203 219.781 300.14 219.44 303.896M219.44 247.144L225.499 247.144L225.499 241.169C223.622 241.169 222.872 241.305 222.085 241.782C221.676 242.329 220.891 244.003 219.44 247.144M236.87 171.85L239.911 169.016C238.39 167.446 237.69 166.013 237.4 164.201C236.991 162.734 236.87 159.969 236.87 156.759C234.463 161.778 232.346 166.798 230.673 171.338C228.863 175.675 227.258 179.431 225.499 182.983C224.475 185.953 223.281 188.992 222.085 191.963C221.096 194.764 220.275 197.666 219.44 200.671C219.781 200.499 219.781 200.124 220.275 199.919C220.275 199.919 220.891 199.611 221.096 199.306C221.436 199.27 222.872 198.894 225.499 198.894C225.499 195.855 225.499 192.886 226.473 190.016C227.395 187.047 227.874 183.87 227.874 181.003L236.87 181.003L236.87 171.85ZM213.464 409.408C215.307 407.839 217.151 406.474 219.44 405.209C221.676 403.945 223.622 403.365 225.499 403.365L227.874 370.311C225.978 372.257 224.475 374.442 223.008 377.789L219.44 386.393C218.125 389.399 216.896 392.746 215.513 395.648C214.232 398.756 212.508 401.386 210.408 403.365C210.408 404.287 210.749 404.936 210.817 405.209C211.004 407.018 212.132 408.419 213.464 409.408M201.922 206.1C202.212 206.066 202.212 205.759 201.922 205.418L201.922 206.1ZM244.11 101.747C245.425 100.552 246.671 99.7671 248.532 99.7671C250.119 99.7671 251.537 100.552 253.039 101.544C254.525 102.361 255.908 103.01 257.717 103.01C258.452 99.4261 259.067 96.8301 259.544 95.3611C259.953 93.8261 260.364 92.9381 261.268 92.3911C262.038 92.3911 263.027 92.2551 264.154 92.2551C265.127 92.2551 266.749 91.6411 269.242 90.6171L269.242 96.7621L275.149 96.7621C276.533 92.3911 277.574 89.8641 278.837 88.7041C279.947 87.5431 282.405 86.3141 286.589 84.7771L286.589 93.8261L289.935 93.8261C292.684 92.3911 294.442 91.2651 294.886 90.3771C295.672 89.8641 295.739 87.9191 295.739 84.7771L301.493 84.7771C303.081 87.9191 304.004 89.6601 304.327 90.1041C304.857 90.3771 305.847 90.6171 307.265 90.6171C309.041 88.9431 311.174 87.9191 313.649 87.9191C316.364 87.9191 318.959 89.2161 321.81 91.2651C324.884 93.2791 327.478 95.9761 329.886 98.6401C332.583 101.68 334.617 104.615 336.341 107.621C337.724 110.694 339.02 113.152 339.515 115.168C345.68 118.035 349.692 120.768 352.115 123.259C354.541 125.82 357.392 129.986 360.226 136.031C363.743 136.031 365.16 139.684 365.16 147.094C365.16 148.973 365.16 150.987 365.058 153.206C364.819 155.766 364.819 157.815 364.819 159.969C364.819 164.201 365.16 167.992 366.202 171.338C366.936 174.615 369.19 176.733 371.837 177.826C371.837 182.402 372.041 186.362 372.417 189.573C372.672 192.578 373.457 195.855 375.08 198.894L375.08 231.811C375.08 233.589 374.481 234.373 373.235 234.784C372.894 234.886 372.672 235.057 371.837 235.057C371.068 245.368 370.146 251.925 370.146 255.545C369.531 259.164 369.308 261.657 369.308 263.193L369.308 264.969L371.837 268.145L369.308 291.877L366.202 291.877C364.528 295.667 363.522 298.773 362.429 300.994C361.66 303.076 360.857 305.33 359.679 306.97C359.047 308.984 357.938 310.622 356.691 312.467C355.394 314.175 353.842 316.393 351.81 319.126C347.387 321.448 341.531 324.35 334.617 327.115C327.804 330.053 321.23 331.383 315.168 331.383C310.356 331.383 306.992 330.462 304.703 328.276C303.184 331.179 301.766 333.672 300.589 335.277C299.36 336.882 298.899 338.59 298.899 340.195C295.876 340.195 293.385 339.613 291.78 338.419C289.935 336.882 288.126 335.721 286.589 334.287C286.589 335.721 285.514 336.882 283.498 338.419C281.143 339.613 279.725 340.195 278.001 340.195C273.716 335.584 269.737 332.988 266.05 332.546C262.499 332.101 259.1 331.794 255.908 331.691C253.228 331.555 250.581 330.462 248.378 329.061C246.039 327.389 244.11 322.949 242.778 316.393L239.911 316.393L239.911 319.126C239.911 337.427 240.439 355.39 241.634 373.044C242.386 390.629 242.778 407.394 242.778 423.989C236.769 425.662 230.811 427.028 225.499 428.428C219.44 429.624 213.618 430.444 207.658 430.444C204.842 427.028 202.212 423.989 200.367 421.088C198.336 418.219 195.827 415.146 192.787 412.106C192.787 405.961 192.958 400.735 192.958 396.296C193.266 391.892 194.136 388.067 195.401 385.028C191.558 379.805 188.623 372.257 187.05 362.594C185.531 352.896 184.746 342.481 184.746 331.383C184.746 317.965 185.531 304.646 186.932 291.057C188.11 277.468 189.135 266.984 189.799 259.097C188.11 254.69 187.29 250.047 187.29 245.572C187.119 240.793 187.05 235.057 187.05 229.285C187.29 224.811 187.512 220.749 187.512 216.685L187.512 204.358L187.512 193.432L186.642 155.836L186.642 145.319C186.642 134.528 187.05 124.079 187.974 114.007C188.963 103.967 190.79 94.2011 192.787 84.7771C197.619 84.7771 200.778 86.7231 202.843 90.3771C204.96 94.2011 207.267 98.4701 210.408 103.01L210.408 96.7621C212.508 96.7621 214.385 96.5571 216.144 96.0801C218.125 95.4651 219.781 95.3611 221.949 95.3611C224.134 95.3611 225.978 95.8411 227.874 96.7621C227.874 93.6201 228.437 91.2651 229.274 89.6601C230.554 87.9191 230.947 86.3141 230.947 84.7771L239.911 84.7771L239.911 88.9431C239.911 91.3331 240.217 93.6201 240.32 95.8411C240.32 97.9911 241.241 100.312 242.778 103.01L244.11 101.747Z" fill="#0f99db" fill-rule="evenodd" opacity="1" stroke="none"/>
</g>
</g>
</g>
</svg>
